<svg width="16" height="16" viewBox="0 0 16 16" fill="none" xmlns="http://www.w3.org/2000/svg">
<path d="M11.9457 9.54675C11.773 9.71408 11.6937 9.95608 11.733 10.1934L12.3257 13.4734C12.3757 13.7514 12.2583 14.0327 12.0257 14.1934C11.7977 14.3601 11.4943 14.3801 11.2457 14.2467L8.293 12.7067C8.19033 12.6521 8.07633 12.6227 7.95967 12.6194H7.779C7.71633 12.6287 7.655 12.6487 7.599 12.6794L4.64567 14.2267C4.49967 14.3001 4.33433 14.3261 4.17233 14.3001C3.77767 14.2254 3.51433 13.8494 3.579 13.4527L4.17233 10.1727C4.21167 9.93341 4.13233 9.69008 3.95967 9.52008L1.55233 7.18675C1.351 6.99141 1.281 6.69808 1.373 6.43341C1.46233 6.16941 1.69033 5.97675 1.96567 5.93341L5.279 5.45275C5.531 5.42675 5.75233 5.27341 5.86567 5.04675L7.32567 2.05341C7.36033 1.98675 7.405 1.92541 7.459 1.87341L7.519 1.82675C7.55033 1.79208 7.58633 1.76341 7.62633 1.74008L7.699 1.71341L7.81234 1.66675H8.093C8.34367 1.69275 8.56433 1.84275 8.67967 2.06675L10.159 5.04675C10.2657 5.26475 10.473 5.41608 10.7123 5.45275L14.0257 5.93341C14.3057 5.97341 14.5397 6.16675 14.6323 6.43341C14.7197 6.70075 14.6443 6.99408 14.439 7.18675L11.9457 9.54675Z" fill="#FFBB0E"/>
</svg>
